<?xml version="1.0" encoding="utf-8"?>
<!-- Generator: Adobe Illustrator 27.5.0, SVG Export Plug-In . SVG Version: 6.00 Build 0)  -->
<svg version="1.1" xmlns="http://www.w3.org/2000/svg" xmlns:xlink="http://www.w3.org/1999/xlink" x="0px" y="0px"
	 viewBox="0 0 500 500" style="enable-background:new 0 0 500 500;" xml:space="preserve">
<!-- <g id="BACKGROUND">
	<rect style="fill:#FFFFFF;" width="500" height="500"/>
</g> -->
<g id="OBJECTS">
	<path style="fill:#FFF5E9;" d="M426.618,262.599c-17.136-8.572-37.198-13.513-56.756-22.039
		c-62.571-27.276-56.903-93.61-96.514-137.654C238.329,63.97,178.828,62.811,130.98,80.532C81,99.043,38.187,139.135,27.254,189.057
		C15.78,241.451,44.142,294.483,99.891,313.014c64.458,21.426,143.215,3.897,195.67,52.461
		c31.362,29.035,64.617,54.432,112.355,40.27c46.87-13.905,73.821-63.359,55.367-105.905
		C455.1,280.975,442.045,270.316,426.618,262.599z"/>
	<g>
		<g>
			<g>
				<path style="fill:#1B1B28;" d="M121.11,404.562c6.901,5.07,18.525,3.429,18.414,9.704c-15.205,1.616-22.857-2.042-22.857-2.042
					l-0.036,2.017l-5.305-0.671c0,0-2.055-5.117-0.633-9.264L121.11,404.562z"/>
				<path style="fill:#1B1B28;" d="M62.187,403.837c-6.901,5.07-18.524,3.429-18.414,9.704c15.205,1.616,22.857-2.042,22.857-2.042
					l0.036,2.017l5.305-0.671c0,0,2.055-5.117,0.633-9.264L62.187,403.837z"/>
				<path style="fill:#7B95BA;" d="M100.966,298.657c4.935,50.024,9.727,105.649,9.727,105.649
					c3.474,2.221,6.946,2.357,10.417,0.256c8.297-83.929,2.419-132.475,2.419-132.475l-21.352-0.34 M102.177,271.747l-23.613-0.376
					c-12.063,73.286-16.378,132.467-16.378,132.467c3.512,2.196,7.301,2.594,10.732,0.468
					c8.598-53.037,27.168-105.678,28.048-105.649"/>
				<g>
					<path style="fill:#4F7099;" d="M69.557,401.495c-0.015,0-0.03-0.001-0.045-0.004c-0.146-0.024-0.243-0.162-0.219-0.308
						c5.98-35.191,15.29-70.008,27.671-103.486c0.051-0.138,0.205-0.209,0.344-0.158c0.138,0.051,0.209,0.205,0.158,0.344
						c-12.369,33.447-21.67,68.232-27.644,103.39C69.798,401.403,69.685,401.495,69.557,401.495z"/>
					<path style="fill:#4F7099;" d="M100.953,295.351c-0.059,0-0.117-0.02-0.164-0.056c-0.064-0.05-0.102-0.126-0.103-0.208
						l-0.157-14.192c-0.002-0.148,0.117-0.269,0.264-0.271c0.001,0,0.002,0,0.003,0c0.146,0,0.266,0.118,0.267,0.264l0.153,13.832
						c0.588-0.229,1.052-0.673,1.354-1.299c0.36-0.747,0.487-1.609,0.587-2.428c0.428-3.542,0.48-7.174,0.53-10.686
						c0.002-0.146,0.121-0.263,0.268-0.263c0.001,0,0.003,0,0.004,0c0.148,0.002,0.266,0.123,0.264,0.272
						c-0.051,3.526-0.103,7.172-0.535,10.743c-0.104,0.863-0.239,1.774-0.636,2.595c-0.422,0.875-1.145,1.474-2.036,1.689
						C100.995,295.349,100.974,295.351,100.953,295.351z"/>
					<path style="fill:#4F7099;" d="M113.066,401.111c-0.14,0-0.257-0.109-0.267-0.25c-2.29-34.426-5.439-69.258-9.358-103.529
						c-0.017-0.146,0.089-0.279,0.236-0.296c0.143-0.015,0.28,0.087,0.296,0.235c3.92,34.28,7.07,69.12,9.361,103.554
						c0.01,0.147-0.102,0.275-0.249,0.284C113.078,401.111,113.072,401.111,113.066,401.111z"/>
				</g>
			</g>
			<g>
				<g>
					<g>
						<g>
							<path style="fill:#EFAD9C;" d="M140.419,237.402c-5.093-7.872-9.828-16.632-12.588-25.215l-19.678-14.531
								c0,0,3.311,19.625,24.312,47.928c2.902,3.912,5.558,7.113,12.414,2.15c9.54-6.905,22.396-15.76,29.392-21.301l-5.384-6.601
								C168.888,219.832,157.318,229.08,140.419,237.402"/>
						</g>
						<g>
							<path style="fill:#EFAD9C;" d="M168.375,220.155c-0.286,0.206-0.243,0.538-0.062,0.751c-0.027,0.049-0.055,0.097-0.068,0.16
								c-0.475,2.253-0.812,4.907,1.086,6.605c1.537,1.376,3.87,2.028,5.832,2.307c4.194,0.596,8.574-0.625,11.809-3.438
								c0.17-0.148,0.205-0.343,0.166-0.521c0.735-0.467,1.36-1.075,1.722-1.912c0.121-0.281-0.006-0.515-0.203-0.639
								c0.121-0.131,0.232-0.268,0.32-0.42c0.32-0.551,0.303-1.203,0.014-1.693c0.188-0.471,0.165-1-0.225-1.441
								c-0.766-0.866-1.88-0.467-2.794-0.176c-1.196,0.381-2.432,0.625-3.68,0.742c-1.928,0.18-3.877,0.033-5.766-0.415
								c0.304-0.078,0.609-0.155,0.913-0.233c0.905-0.231,1.908-0.371,2.775-0.725c0.636-0.26,1.135-0.99,0.736-1.685
								c-0.392-0.683-1.367-0.6-2.013-0.612C175.164,216.739,171.456,217.934,168.375,220.155z"/>
							<g>
								<path style="fill:#C16B5B;" d="M188.789,221.447c0.011,0.093-0.04,0.185-0.129,0.222c-3.09,1.292-6.488,1.835-9.826,1.572
									c-0.116-0.01-0.197-0.119-0.196-0.23c0.009-0.117,0.112-0.205,0.23-0.195c3.27,0.258,6.599-0.275,9.626-1.54
									c0.109-0.046,0.234,0.005,0.279,0.114C188.782,221.41,188.787,221.428,188.789,221.447z"/>
								<path style="fill:#C16B5B;" d="M188.178,223.661c0.011,0.092-0.039,0.184-0.129,0.222c-2.879,1.217-6.038,1.645-9.136,1.239
									c-0.117-0.015-0.196-0.118-0.183-0.24c0.015-0.117,0.123-0.199,0.24-0.183c3.022,0.396,6.105-0.022,8.915-1.209
									c0.108-0.046,0.233,0.005,0.279,0.114C188.171,223.623,188.176,223.642,188.178,223.661z"/>
								<path style="fill:#C16B5B;" d="M186.514,226.262c0.005,0.096-0.058,0.188-0.155,0.215c-2.434,0.689-4.946,0.927-7.468,0.709
									c-0.116-0.01-0.205-0.106-0.194-0.231c0.011-0.117,0.114-0.204,0.231-0.194c2.469,0.215,4.93-0.019,7.315-0.693
									c0.113-0.033,0.231,0.034,0.263,0.147C186.511,226.229,186.513,226.246,186.514,226.262z"/>
							</g>
						</g>
					</g>
					<path style="fill:#36303A;" d="M116.557,195.443c8.529,3.692,17.674,24.574,17.674,24.574l-14.122,6.843
						C117.242,214.911,115.43,203.888,116.557,195.443z"/>
				</g>
				<g>
					<path style="fill:#36303A;" d="M106.08,192.027l10.477,3.417c0,0,5.383,44.916,7.947,79.55
						c-32.991,6.976-47.075-0.076-47.075-0.076c1.961-40.781,7.947-79.474,7.947-79.474l10.407-3.417H106.08z"/>
					<path style="fill:#F3DEC1;" d="M115.371,223.271c0-5.391-5.907-9.761-13.194-9.761c-7.287,0-13.194,4.37-13.194,9.761
						c0,2.901,1.721,5.499,4.437,7.287c-0.599,1.094-0.944,2.314-0.944,3.606c0,4.653,4.513,4.957,9.87,4.957
						c5.357,0,9.531-0.305,9.531-4.957c0-1.292-0.345-2.512-0.944-3.606C113.65,228.771,115.371,226.173,115.371,223.271z"/>
					<g>
						<path style="fill:#36303A;" d="M99.271,222.654c0,1.563-1.267,2.83-2.83,2.83c-1.563,0-2.83-1.267-2.83-2.83
							c0-1.563,1.267-2.83,2.83-2.83C98.004,219.824,99.271,221.091,99.271,222.654z"/>
						<path style="fill:#36303A;" d="M105.674,222.654c0,1.563,1.267,2.83,2.83,2.83c1.563,0,2.83-1.267,2.83-2.83
							c0-1.563-1.267-2.83-2.83-2.83C106.941,219.824,105.674,221.091,105.674,222.654z"/>
						<path style="fill:#36303A;" d="M101.756,226.178c0,0,0.367,3.116-0.729,3.116C99.271,229.294,101.756,226.178,101.756,226.178
							z"/>
						<path style="fill:#36303A;" d="M102.598,226.178c0,0-0.367,3.116,0.729,3.116
							C105.084,229.294,102.598,226.178,102.598,226.178z"/>
					</g>
				</g>
				<g>
					<g>
						<g>
							<path style="fill:#EFAD9C;" d="M100.715,258.523c-0.349,0.055-0.46,0.37-0.395,0.642c-0.046,0.031-0.093,0.062-0.133,0.112
								c-1.44,1.796-2.939,4.013-2.011,6.385c0.751,1.921,2.539,3.556,4.164,4.689c3.474,2.424,7.934,3.311,12.09,2.259
								c0.219-0.055,0.338-0.214,0.383-0.39c0.866-0.086,1.699-0.345,2.399-0.93c0.235-0.196,0.227-0.462,0.107-0.662
								c0.167-0.062,0.327-0.135,0.475-0.231c0.535-0.347,0.813-0.937,0.777-1.504c0.381-0.335,0.599-0.818,0.45-1.387
								c-0.293-1.118-1.467-1.265-2.414-1.417c-1.24-0.199-2.452-0.539-3.619-0.998c-1.802-0.709-3.475-1.72-4.959-2.971
								c0.307,0.068,0.614,0.136,0.92,0.204c0.912,0.202,1.87,0.53,2.804,0.605c0.685,0.055,1.459-0.372,1.417-1.172
								c-0.042-0.787-0.95-1.152-1.52-1.454C108.315,258.537,104.467,257.931,100.715,258.523z"/>
							<g>
								<path style="fill:#C16B5B;" d="M118.351,268.886c-0.032,0.088-0.119,0.147-0.215,0.14c-3.34-0.241-6.618-1.289-9.478-3.03
									c-0.099-0.062-0.123-0.195-0.071-0.293c0.061-0.1,0.192-0.132,0.293-0.071c2.802,1.706,6.013,2.732,9.286,2.969
									c0.118,0.008,0.206,0.11,0.198,0.227C118.362,268.849,118.358,268.868,118.351,268.886z"/>
								<path style="fill:#C16B5B;" d="M116.807,270.586c-0.031,0.087-0.118,0.147-0.215,0.14c-3.119-0.213-6.131-1.256-8.713-3.016
									c-0.097-0.066-0.122-0.194-0.056-0.297c0.066-0.097,0.199-0.122,0.297-0.056c2.518,1.717,5.458,2.735,8.502,2.943
									c0.117,0.008,0.205,0.11,0.198,0.227C116.818,270.548,116.814,270.568,116.807,270.586z"/>
								<path style="fill:#C16B5B;" d="M114.149,272.156c-0.04,0.088-0.137,0.141-0.235,0.121c-2.483-0.483-4.833-1.404-6.984-2.737
									c-0.099-0.061-0.135-0.187-0.069-0.294c0.062-0.1,0.194-0.13,0.294-0.069c2.107,1.306,4.408,2.207,6.841,2.681
									c0.115,0.022,0.191,0.134,0.168,0.25C114.161,272.126,114.155,272.142,114.149,272.156z"/>
							</g>
						</g>
						<g>
							<path style="fill:#EFAD9C;" d="M71.523,245.931c3.303-8.775,7.533-17.79,12.794-25.11l-0.012-24.461
								c0,0-13.813,14.328-24.09,48.04c-1.42,4.659-1.434,9.003,5.65,11.261c11.221,3.576,25.987,8.642,34.601,10.974l2.108-8.253
								C102.574,258.382,88.26,254.575,71.523,245.931"/>
						</g>
					</g>
					<path style="fill:#36303A;" d="M85.376,195.443c-8.529,3.692-16.922,23.403-16.922,23.403l13.37,8.014
						C88.362,218.241,88.068,207.257,85.376,195.443z"/>
				</g>
			</g>
			<g>
				<path style="fill:#7B3A4A;" d="M87.712,167.914c1.423,4.188,3.401,8.197,5.924,11.834c0.89,1.283,1.993,2.834,3.727,2.867
					c1.883,0.036,2.98-1.57,3.854-2.996c4.004-6.54,12.376-8.578,16.472-15.09c4.041-6.426,6.541-16.452-0.204-19.288
					c-5.448-2.29-26.847,3.917-30.698,10.01C84.408,159.014,86.358,163.928,87.712,167.914z"/>
				<path style="fill:#EFAD9C;" d="M94.459,156.584c4.648-8.522,21.001-5.613,22.272,1.162c2.615,13.937,0.63,19.658-3.244,22.95
					c-4.482,3.81-7.408,3.325-7.408,11.33c-1.695,4.261-8.199,4.842-10.297,0c0.129-10.604-3.51-18.64-3.51-18.64
					S92.543,160.098,94.459,156.584z"/>
				<path style="fill:#7B3A4A;" d="M96.202,158.472c2.808,4.048,8.457,3.115,8.457,3.115l-3.26-2.808c0,0,8.07,4.777,16.402,3.122
					c0,0,1.223-3.058-2.522-8.158c-2.395-3.262-9.361-4.067-15.3-2.97c-5.939,1.098-8.522,3.68-8.715,7.941
					c-0.194,4.261-0.627,9.581-0.627,9.581l2.305,1.758C96.557,167.642,96.202,158.472,96.202,158.472z"/>
				<g>
					<g>
						<path style="fill:#1B1B28;" d="M104.448,169.722c0,0.579,0.469,1.049,1.048,1.049c0.579,0,1.049-0.469,1.049-1.049
							c0-0.579-0.469-1.048-1.049-1.048C104.918,168.673,104.448,169.143,104.448,169.722z"/>
						<path style="fill:#FFFFFF;" d="M105.497,169.435c0,0.212,0.172,0.384,0.384,0.384c0.212,0,0.384-0.172,0.384-0.384
							c0-0.212-0.172-0.384-0.384-0.384C105.669,169.051,105.497,169.223,105.497,169.435z"/>
					</g>
					<g>
						<path style="fill:#1B1B28;" d="M112.558,169.722c0,0.579,0.469,1.049,1.048,1.049c0.579,0,1.049-0.469,1.049-1.049
							c0-0.579-0.47-1.048-1.049-1.048C113.027,168.673,112.558,169.143,112.558,169.722z"/>
						<path style="fill:#FFFFFF;" d="M113.606,169.435c0,0.212,0.172,0.384,0.384,0.384c0.212,0,0.384-0.172,0.384-0.384
							c0-0.212-0.172-0.384-0.384-0.384C113.778,169.051,113.606,169.223,113.606,169.435z"/>
					</g>
					<path style="fill:#7B3A4A;" d="M111.856,165.617c1.317-0.917,3.028-0.864,4.269,0.209c0.232,0.201,0.273,0.605,0.096,0.867
						c-0.18,0.267-0.523,0.312-0.756,0.11c-0.509-0.44-1.158-0.639-1.792-0.593c-0.32,0.024-0.637,0.109-0.931,0.256
						c-0.261,0.13-0.514,0.355-0.807,0.187c-0.07-0.04-0.13-0.099-0.177-0.17C111.595,166.242,111.606,165.791,111.856,165.617z"/>
					<path style="fill:#7B3A4A;" d="M107.769,165.617c-1.51-0.917-3.472-0.864-4.895,0.209c-0.267,0.201-0.313,0.605-0.111,0.867
						c0.207,0.267,0.6,0.312,0.867,0.11c0.584-0.44,1.328-0.631,2.053-0.583c0.367,0.025,0.73,0.109,1.069,0.251
						c0.299,0.126,0.593,0.348,0.926,0.181c0.08-0.04,0.149-0.099,0.203-0.17C108.068,166.242,108.056,165.791,107.769,165.617z"/>
					<path style="fill:#C16B5B;" d="M111.255,172.565c0.059,0,0.114-0.039,0.132-0.099c0.259-0.894-0.044-1.198-0.345-1.295
						c-0.305-0.097-0.67-0.019-1.086,0.238c-0.064,0.04-0.084,0.124-0.044,0.189c0.041,0.064,0.126,0.083,0.189,0.044
						c0.343-0.212,0.632-0.283,0.857-0.21c0.27,0.087,0.326,0.409,0.166,0.958c-0.021,0.072,0.021,0.148,0.094,0.17
						C111.229,172.564,111.243,172.565,111.255,172.565z"/>
					<g>
						<path style="fill:#8E4136;" d="M106.469,173.517c0.474-0.602,1.506,0.172,2.801,0.397s2.527-0.155,2.771,0.571
							c0.308,0.918-1.172,2.812-3.294,2.443C106.624,176.559,105.869,174.277,106.469,173.517z"/>
						<path style="fill:#C16B5B;" d="M106.409,174.936c0.414,0.019,0.853,0.061,1.31,0.141c1.507,0.262,2.744,0.796,3.269,1.345
							c-0.58,0.406-1.348,0.661-2.242,0.506C107.471,176.706,106.7,175.794,106.409,174.936z"/>
						<path style="fill:#FFFFFF;" d="M109.143,174.641c-1.156-0.201-2.091-0.646-2.342-1.332c0.547-0.117,1.422,0.423,2.468,0.604
							c1.047,0.182,2.051-0.031,2.527,0.263C111.33,174.739,110.3,174.842,109.143,174.641z"/>
					</g>
				</g>
				<g>
					<path style="fill:#EFAD9C;" d="M88.686,173.693c1.402,1.672,3.614,2.125,4.941,1.012c1.327-1.113,1.266-3.37-0.136-5.041
						c-1.402-1.672-3.614-2.125-4.94-1.012C87.224,169.764,87.285,172.021,88.686,173.693z"/>
					<path style="fill:#C16B5B;" d="M89.466,169.469c0.596-0.315,1.391-0.301,2.125,0.041c0.366,0.17,0.631,0.377,0.813,0.632
						c0.24,0.338,0.306,0.763,0.173,1.108c-0.118,0.31-0.365,0.511-0.584,0.688c-0.158,0.128-0.307,0.25-0.392,0.395
						c-0.129,0.223-0.097,0.535,0.076,0.725c0.173,0.19,0.48,0.252,0.714,0.144c0.138-0.064,0.3-0.003,0.364,0.134
						c0.063,0.137,0.004,0.3-0.134,0.364c-0.15,0.07-0.313,0.103-0.477,0.103c-0.325,0-0.651-0.132-0.873-0.376
						c-0.333-0.367-0.393-0.942-0.144-1.369c0.134-0.231,0.339-0.397,0.519-0.544c0.181-0.147,0.351-0.286,0.418-0.46
						c0.067-0.174,0.024-0.407-0.109-0.595c-0.054-0.076-0.127-0.144-0.208-0.21c-0.272-0.002-0.613,0.081-0.785,0.269
						c-0.194,0.212-0.285,0.52-0.239,0.803c0.025,0.149-0.076,0.29-0.226,0.315c-0.015,0.003-0.03,0.004-0.045,0.004
						c-0.132,0-0.248-0.095-0.27-0.23c-0.075-0.451,0.065-0.922,0.375-1.261c0.115-0.126,0.259-0.211,0.41-0.28
						c-0.453-0.122-0.9-0.098-1.247,0.085c-0.429,0.226-0.752,0.811-0.532,1.287c0.063,0.138,0.003,0.3-0.134,0.364
						c-0.137,0.063-0.3,0.004-0.364-0.134C88.372,170.777,88.726,169.861,89.466,169.469z"/>
				</g>
			</g>
		</g>
		<path style="fill:#F3DEC1;" d="M179.87,107.532c-18.413,0-33.339,9.974-33.339,22.277c0,7.935,6.214,14.896,15.562,18.843
			c-3.21,6.247-8.306,11.519-14.478,14.876c8.963-0.778,17.46-5.363,23.188-12.282c2.884,0.544,5.923,0.841,9.067,0.841
			c18.413,0,33.339-9.974,33.339-22.277C213.209,117.506,198.283,107.532,179.87,107.532z"/>
	</g>
	<g>
		<path style="fill:#F3DEC1;" d="M365.723,153.847c6.746-5.356,11.196-14.518,11.196-24.925c0-16.515-11.198-29.903-25.012-29.903
			c-13.813,0-25.011,13.388-25.011,29.903c0,16.515,11.198,29.902,25.011,29.902c3.297,0,6.442-0.77,9.325-2.156
			c3.602,3.626,8.681,5.633,13.798,5.084C371.242,160.106,367.976,157.306,365.723,153.847z"/>
		<g>
			<path style="fill:#3C495E;" d="M389.981,152.732c-5.502,2.498-9.32,8.33-9.409,14.372c-0.054,3.63,1.093,7.45-0.349,10.782
				c-0.701,1.62-1.947,2.93-2.936,4.392c-0.989,1.462-1.744,3.267-1.271,4.967c0.474,1.703,2.092,2.965,2.345,4.715
				c0.223,1.544-0.692,3.029-1.768,4.158c-1.076,1.129-2.365,2.082-3.199,3.4c-2.108,3.331-0.525,8.001,2.491,10.539
				c3.016,2.538,7.05,3.439,10.932,4.122c11.385,2.002,23.638,2.711,33.998-2.417c3.485-1.725,6.804-4.261,8.259-7.867
				s0.429-8.393-3.01-10.207c-1.054-0.556-2.246-0.806-3.307-1.347c-1.062-0.541-2.041-1.513-2.059-2.704
				c-0.03-1.945,2.361-3.095,2.818-4.986c0.341-1.409-0.5-2.854-1.562-3.84c-1.063-0.987-2.365-1.695-3.383-2.728
				c-2.291-2.325-2.763-5.858-2.835-9.121c-0.072-3.263,0.104-6.672-1.282-9.627c-0.942-2.006-2.922-3.493-5.081-4.103
				c-1.203-0.34-3.078,0.271-3.078,0.271s-0.514-1.532-2.226-2.342C399.686,151.086,394.414,150.719,389.981,152.732z"/>
			<g>
				<g>
					<path style="fill:#FFB681;" d="M374.128,273.345h26.684l-3.775,31.585c-4.935,50.024-9.722,100.924-9.722,100.924
						c-3.474,2.221-6.951,2.177-10.422,0.077C367.639,309.968,374.128,273.345,374.128,273.345z"/>
					<g>
						<path style="fill:#7B95BA;" d="M386.523,415.109c0,0-13.031,2.086-28.213,0.203c0-4.665,6.409-4.847,12.571-6.665
							c2.129-0.621,4.226-1.444,6.013-2.718l10.421-0.075c0.171,0.524,0.289,1.059,0.353,1.605
							C388.16,411.225,386.523,415.109,386.523,415.109z"/>
						<path style="fill:#FFB681;" d="M387.668,407.459c-4.034,1.423-8.409,2.803-12.678,3.167c-1.059,0.096-2.193,0.118-3.092-0.439
							c-0.535-0.321-0.931-0.931-1.016-1.541c2.129-0.621,4.226-1.444,6.013-2.718c3.487-0.599,6.961-0.658,10.421-0.075
							C387.486,406.378,387.604,406.913,387.668,407.459z"/>
					</g>
				</g>
				<g>
					<path style="fill:#FFB681;" d="M422.774,335.312c11.166-48.848-1.898-62.948-1.898-62.948h-27.343
						c0,0,3.556,24.977,9.103,63.477c0.491,3.41,1.612,6.704,3.297,9.71c8.966,15.993,20.186,33.636,33.287,53.52
						c3.686,1.333,8.115,1.25,10.156-2.333C449.376,396.739,436.556,368.727,422.774,335.312z"/>
					<g>
						<path style="fill:#7B95BA;" d="M450.611,405.945c0,0-12.269,4.863-27.498,6.317c-1.012-4.554,5.205-6.121,10.827-9.233
							c1.944-1.068,3.812-2.326,5.28-3.957l10.157-2.333c0.281,0.475,0.512,0.971,0.693,1.49
							C451.366,401.798,450.611,405.945,450.611,405.945z"/>
						<path style="fill:#FFB681;" d="M450.069,398.229c-3.629,2.264-7.602,4.56-11.69,5.841c-1.013,0.324-2.115,0.59-3.113,0.242
							c-0.592-0.197-1.111-0.707-1.326-1.284c1.944-1.068,3.812-2.326,5.28-3.957c3.274-1.341,6.653-2.152,10.157-2.333
							C449.657,397.213,449.888,397.71,450.069,398.229z"/>
					</g>
				</g>
				<g>
					<path style="fill:#6B8383;" d="M422.458,258.997c5.043,14.902,9.465,33.171,7.898,56.119
						c-8.219,6.433-20.738,10.838-31.175,10.769c-0.557-8.187-1.223-15.714-1.78-23.901c-0.491,8.095-1.088,15.98-1.579,24.076
						c-10.057,0.308-20.068-2.79-28.767-9.62c-1.353-14.142,1.114-40.983,10.782-56.701
						C393.149,257.559,407.075,257.391,422.458,258.997z"/>
					<g>
						
							<path style="fill:none;stroke:#4A6D6C;stroke-width:0.5;stroke-linecap:round;stroke-linejoin:round;stroke-miterlimit:10;" d="
							M400.812,323.165c9.173-0.923,19.855-5.402,27.445-10.635"/>
						
							<path style="fill:none;stroke:#4A6D6C;stroke-width:0.5;stroke-linecap:round;stroke-linejoin:round;stroke-miterlimit:10;" d="
							M369.024,312.862c8.116,7.391,17.34,8.578,24.138,10.097"/>
						
							<path style="fill:none;stroke:#4A6D6C;stroke-width:0.5;stroke-linecap:round;stroke-linejoin:round;stroke-miterlimit:10;" d="
							M377.14,265.146c14.872,3.655,30.585,3.839,45.539,0.532"/>
						
							<path style="fill:none;stroke:#4A6D6C;stroke-width:0.5;stroke-linecap:round;stroke-linejoin:round;stroke-miterlimit:10;" d="
							M397.283,301.111c-0.323-6.831,0.522-25.983,1.447-32.758"/>
					</g>
					<g>
						
							<path style="fill:none;stroke:#FFFFFF;stroke-width:0.5;stroke-linecap:round;stroke-linejoin:round;stroke-miterlimit:10;" d="
							M396.943,269.865c-4.141,4.888-7.35,12.583-7.91,18.965"/>
						
							<path style="fill:none;stroke:#FFFFFF;stroke-width:0.5;stroke-linecap:round;stroke-linejoin:round;stroke-miterlimit:10;" d="
							M399.86,269.865c0.462,5.933,2.361,12.979,4.279,18.613"/>
					</g>
				</g>
			</g>
			<g>
				<g>
					<g>
						<g>
							<path style="fill:#FFB681;" d="M354.405,241.73c-4.081-13.12-5.993-25.658-7.46-32.69l8.428-0.667
								c0,0,0.863,10.46,8.509,27.675c5.093-7.872,9.828-16.632,12.588-25.215l16.303-4.111c0,0-3.584,11.866-21.146,37.783
								C367.055,251.252,358.676,255.464,354.405,241.73z"/>
						</g>
						<path style="fill:#FFB681;" d="M344.195,205.297c-1.591-1.576-2.982-3.353-4.13-5.276c-0.142-0.238-0.283-0.484-0.331-0.757
							c-0.048-0.273,0.013-0.581,0.222-0.763c0.385-0.336,0.98-0.084,1.412,0.189c1.169,0.74,2.397,1.509,3.438,2.422
							c-1.116-1.784-2.232-3.569-3.274-5.397c-0.168-0.295-0.338-0.6-0.386-0.937s0.049-0.715,0.326-0.912
							c0.267-0.189,0.639-0.167,0.936-0.029c0.296,0.138,0.534,0.374,0.765,0.605c1.388,1.39,2.749,2.809,4.137,4.199
							c-1.078-2.251-2.16-4.513-2.884-6.902c-0.085-0.281-0.166-0.571-0.142-0.863c0.024-0.292,0.173-0.592,0.439-0.716
							c0.254-0.119,0.564-0.054,0.8,0.097c0.237,0.151,0.415,0.376,0.586,0.598c1.634,2.125,3.051,4.387,4.23,6.794
							c-0.622-2.189-1.026-4.44-1.205-6.709c-0.035-0.445-0.019-0.979,0.357-1.218c0.306-0.195,0.73-0.085,1,0.157
							c0.27,0.243,0.419,0.588,0.557,0.923c1.565,3.794,2.711,7.76,3.409,11.804c1.033-1.358,2.201-2.705,3.772-3.372
							c0.488-0.207,1.173-0.274,1.437,0.186c0.187,0.324,0.048,0.731-0.094,1.077c-0.602,1.472-1.204,2.945-1.806,4.417
							c-0.573,1.4-1.15,2.81-1.975,4.078c-0.825,1.268-1.921,2.4-3.297,3.03c-1.633,0.747-3.639,0.699-5.169-0.241
							c-1.03-0.633-1.807-1.624-2.325-2.716C344.48,207.971,344.371,206.492,344.195,205.297z"/>
					</g>
					<path style="fill:#E1695B;" d="M384.672,199.435c0,0-8.282,2.234-15.514,25.322l13.937,7.687
						C383.095,232.445,384.801,208.38,384.672,199.435z"/>
				</g>
				<g>
					<g>
						<g>
							<g>
								<path style="fill:#E1695B;" d="M377.837,259.741c2.793,1.423,23.414,7.245,44.622-0.743
									c-5.471-24.273-0.167-36.208-0.156-36.208c-0.406-13.31-0.888-20.628-0.728-20.692c-4.432-4.009-14.694-5.029-14.694-5.029
									c-3.809-0.685-10.395-0.224-13.016,0.15c-0.118,0.011-0.214,0.021-0.31,0.043c-1.006,0.128-2.011,0.278-3.006,0.471
									l-3.028,0.717c-2.332,0.653-4.173,1.455-4.772,2.215c-1.145,1.637-1.979,6.815-2.964,15.567
									c-2.675,3.531-4.247,7.735-4.247,12.186c0,2.878,0.653,5.852,2.097,8.816c0,0,0.011,0,0.011,0.011
									c0.471,0.963,1.663,2.131,2.369,3.061C381.659,246.703,380.629,254.106,377.837,259.741z"/>
							</g>
						</g>
					</g>
					<g>
						
							<path style="fill:none;stroke:#C94339;stroke-width:0.5;stroke-linecap:round;stroke-linejoin:round;stroke-miterlimit:10;" d="
							M375.31,227.083c0.016-3.786,1.571-7.544,4.236-10.233c0.238-1.348,0.58-2.707,0.819-4.055"/>
						
							<path style="fill:none;stroke:#C94339;stroke-width:0.5;stroke-linecap:round;stroke-linejoin:round;stroke-miterlimit:10;" d="
							M419.974,221.216c-1.838-1.369-3.592-3.651-4.903-5.532"/>
					</g>
				</g>
				<g>
					<g>
						<g>
							<path style="fill:#FFB681;" d="M441.5,242.432c-5.589-7.528-12.136-15.032-19.208-20.622l-4.079-21.137
								c0,0,14.583,7.592,33.737,37.176c2.647,4.089,3.855,8.261-2.334,12.381c-9.804,6.525-14.681,10.42-22.321,15.032
								l-12.223-2.318C415.071,262.943,427.786,255.346,441.5,242.432"/>
						</g>
						<path style="fill:#FFB681;" d="M422.458,258.997c0,0-9.764-1.105-11.791-0.691c-2.026,0.415-10.592,4.852-10.179,5.849
							c0.549,1.325,8.383-2.579,8.383-2.579s-8.002,5.516-7.249,6.515c0.76,1.008,8.217-4.074,8.217-4.074s-5.135,4.866-4.362,5.729
							c0.758,0.846,6.941-4.301,6.941-4.301s-4.23,4.659-3.443,5.616c0.642,0.781,6.16-4.648,6.16-4.648s4.237,4.882,12.159-1.152
							L422.458,258.997z"/>
					</g>
					<path style="fill:#E1695B;" d="M421.575,202.097c0,0,11.177,8.209,17.895,17.744l-9.919,9.678l-8.837-7.214l-3.727-21.821
						l0.181-0.53L421.575,202.097z"/>
				</g>
			</g>
			<g>
				<path style="fill:#FFB681;" d="M407.26,161.626c-4.648-8.522-21.002-5.613-22.273,1.162c-2.615,13.937-0.629,19.658,3.244,22.95
					c4.483,3.81,7.408,3.325,7.408,11.33c1.695,4.261,8.199,4.842,10.297,0c-0.129-10.604,3.51-18.64,3.51-18.64
					S409.177,165.139,407.26,161.626z"/>
				<path style="fill:#3C495E;" d="M383.919,166.943c0,0-1.223-3.057,2.522-8.158c2.395-3.262,9.361-4.067,15.3-2.97
					c5.939,1.098,8.522,3.68,8.715,7.941c0.194,4.261,0.627,9.581,0.627,9.581l-2.305,1.758c-3.615-2.412-3.259-9.001-3.259-9.001
					c-2.269,0.233-4.851,0.311-7.112,0.006c-2.261-0.305-4.519-1.205-6.036-2.909C390.824,165.91,387.046,166.943,383.919,166.943z"
					/>
				<g>
					<g>
						<path style="fill:#1B1B28;" d="M397.271,174.764c0,0.579-0.469,1.049-1.048,1.049c-0.579,0-1.048-0.469-1.048-1.049
							c0-0.579,0.469-1.048,1.048-1.048C396.802,173.715,397.271,174.185,397.271,174.764z"/>
						<path style="fill:#FFFFFF;" d="M396.223,174.477c0,0.212-0.172,0.384-0.384,0.384c-0.212,0-0.384-0.172-0.384-0.384
							s0.172-0.384,0.384-0.384C396.051,174.093,396.223,174.265,396.223,174.477z"/>
					</g>
					<g>
						<path style="fill:#1B1B28;" d="M389.162,174.764c0,0.579-0.469,1.049-1.049,1.049c-0.579,0-1.048-0.469-1.048-1.049
							c0-0.579,0.469-1.048,1.048-1.048C388.692,173.715,389.162,174.185,389.162,174.764z"/>
						<path style="fill:#FFFFFF;" d="M388.113,174.477c0,0.212-0.172,0.384-0.384,0.384c-0.212,0-0.384-0.172-0.384-0.384
							s0.172-0.384,0.384-0.384C387.941,174.093,388.113,174.265,388.113,174.477z"/>
					</g>
					<path style="fill:#3C495E;" d="M389.864,170.659c-1.317-0.917-3.028-0.864-4.269,0.209c-0.232,0.201-0.273,0.605-0.096,0.867
						c0.181,0.267,0.523,0.312,0.756,0.11c0.509-0.441,1.158-0.64,1.792-0.593c0.32,0.024,0.637,0.109,0.931,0.256
						c0.261,0.13,0.514,0.355,0.807,0.187c0.07-0.04,0.13-0.099,0.177-0.17C390.124,171.283,390.114,170.833,389.864,170.659z"/>
					<path style="fill:#3C495E;" d="M393.951,170.659c1.51-0.917,3.472-0.864,4.895,0.209c0.266,0.201,0.313,0.605,0.11,0.867
						c-0.207,0.267-0.599,0.312-0.867,0.11c-0.584-0.44-1.328-0.631-2.053-0.583c-0.367,0.024-0.73,0.109-1.069,0.251
						c-0.299,0.126-0.593,0.348-0.926,0.181c-0.08-0.04-0.149-0.099-0.203-0.17C393.651,171.283,393.664,170.833,393.951,170.659z"
						/>
					<path style="fill:#C16B5B;" d="M390.465,177.607c-0.059,0-0.114-0.039-0.132-0.099c-0.26-0.894,0.044-1.198,0.345-1.295
						c0.305-0.097,0.67-0.019,1.086,0.238c0.064,0.04,0.084,0.124,0.044,0.189c-0.041,0.064-0.126,0.083-0.189,0.044
						c-0.343-0.212-0.632-0.283-0.857-0.21c-0.27,0.087-0.326,0.409-0.166,0.958c0.021,0.072-0.021,0.148-0.094,0.17
						C390.49,177.605,390.477,177.607,390.465,177.607z"/>
					<g>
						<path style="fill:#8E4136;" d="M394.975,178.739c-0.474-0.602-1.506,0.172-2.801,0.397c-1.295,0.225-2.527-0.155-2.771,0.571
							c-0.308,0.918,1.172,2.812,3.294,2.443S395.575,179.5,394.975,178.739z"/>
						<path style="fill:#C16B5B;" d="M395.035,180.159c-0.414,0.019-0.853,0.061-1.31,0.141c-1.507,0.262-2.744,0.796-3.27,1.345
							c0.58,0.406,1.348,0.661,2.242,0.506C393.973,181.929,394.745,181.017,395.035,180.159z"/>
						<path style="fill:#FFFFFF;" d="M392.301,179.864c1.156-0.201,2.091-0.646,2.342-1.332c-0.547-0.117-1.422,0.423-2.468,0.604
							s-2.051-0.032-2.527,0.263C390.115,179.961,391.145,180.064,392.301,179.864z"/>
					</g>
				</g>
				<g>
					<path style="fill:#FFB681;" d="M413.033,178.734c-1.402,1.672-3.614,2.125-4.941,1.012c-1.327-1.113-1.266-3.37,0.136-5.041
						c1.402-1.671,3.614-2.125,4.941-1.012C414.496,174.806,414.435,177.063,413.033,178.734z"/>
					<path style="fill:#C16B5B;" d="M412.254,174.511c-0.596-0.315-1.391-0.301-2.125,0.041c-0.366,0.17-0.631,0.377-0.813,0.632
						c-0.24,0.338-0.306,0.763-0.173,1.108c0.118,0.31,0.365,0.511,0.584,0.688c0.158,0.129,0.307,0.25,0.392,0.395
						c0.129,0.223,0.097,0.535-0.076,0.725c-0.173,0.19-0.48,0.252-0.714,0.144c-0.138-0.064-0.3-0.003-0.364,0.134
						c-0.063,0.137-0.004,0.3,0.134,0.364c0.15,0.07,0.314,0.103,0.477,0.103c0.325,0,0.651-0.132,0.873-0.376
						c0.333-0.367,0.393-0.942,0.144-1.37c-0.134-0.231-0.339-0.397-0.519-0.544c-0.181-0.147-0.352-0.286-0.418-0.46
						c-0.067-0.174-0.024-0.407,0.109-0.595c0.053-0.076,0.127-0.144,0.208-0.21c0.272-0.002,0.613,0.081,0.785,0.269
						c0.194,0.212,0.285,0.52,0.239,0.802c-0.025,0.149,0.077,0.29,0.226,0.315c0.015,0.003,0.03,0.004,0.045,0.004
						c0.132,0,0.248-0.095,0.27-0.229c0.075-0.451-0.065-0.922-0.375-1.261c-0.115-0.126-0.259-0.211-0.41-0.28
						c0.453-0.122,0.9-0.098,1.247,0.085c0.428,0.226,0.752,0.811,0.532,1.287c-0.063,0.137-0.003,0.3,0.134,0.364
						c0.137,0.063,0.3,0.004,0.364-0.134C413.347,175.819,412.993,174.903,412.254,174.511z"/>
				</g>
			</g>
		</g>
	</g>
	<g>
		<g>
			<g>
				<g>
					<g>
						<path style="fill:#1B1B28;" d="M237.949,404.548c6.779,5.232,18.438,3.866,18.179,10.137
							c-15.238,1.255-22.803-2.582-22.803-2.582l-0.083,2.016l-5.288-0.797c0,0-1.934-5.164-0.413-9.277L237.949,404.548z"/>
						<path style="fill:#9E6C52;" d="M241.279,334.645c-7.665,35.323-13.738,69.401-13.738,69.401
							c2.641,3.166,7.015,2.466,10.408,0.503c9.384-21.885,16.446-46.059,22.447-63.384c1.128-3.256,1.649-6.696,1.53-10.139
							c-1.339-38.875-4.757-58.262-4.757-58.262l-23.889,2.155C233.28,274.918,230.864,290.037,241.279,334.645"/>
					</g>
					<g>
						<g>
							<path style="fill:#6F5E68;" d="M258.933,272.604l-25.653,2.314c0,0-2.416,15.119,7.999,59.727
								c-4.22,19.449-7.955,38.508-10.462,51.721c4.333,1.342,8.807,2.159,13.323,2.633c6.421-17.225,11.654-34.544,16.256-47.834
								c1.128-3.256,1.649-6.696,1.53-10.139C260.587,292.15,258.933,272.604,258.933,272.604z"/>
							<path style="fill:#5B4553;" d="M229.332,390.089c0.352-2.078,0.626-4.17,0.819-6.269c5.451,0.701,10.778,1.474,16.228,2.175
								c-0.992,2.101-1.832,4.31-2.496,6.537C238.947,392.702,233.762,392.274,229.332,390.089z"/>
						</g>
						
							<path style="fill:none;stroke:#5B4553;stroke-width:0.5;stroke-linecap:round;stroke-linejoin:round;stroke-miterlimit:10;" d="
							M236.051,278.583c0.44,2.624,0.342,5.304,0.433,7.963c0.156,4.59,0.875,9.141,1.593,13.678
							c0.511,3.231,1.022,6.462,1.533,9.693c1.301,8.228,2.617,16.511,5.406,24.36c-2.954,15.824-6.485,31.54-10.171,47.209"/>
					</g>
				</g>
				<g>
					<g>
						<path style="fill:#1B1B28;" d="M277.977,404.87c6.989,4.95,18.582,3.106,18.58,9.382c-15.174,1.88-22.89-1.644-22.89-1.644
							l0,2.017l-5.316-0.579c0,0-2.144-5.08-0.794-9.252L277.977,404.87z"/>
						<path style="fill:#9E6C52;" d="M272.968,338.454c-2.824,36.034-5.41,66.341-5.41,66.341c3.045,2.78,7.268,2.237,10.42,0.075
							c6.342-22.952,11.208-44.561,14.813-62.538c0.677-3.378,0.729-6.857,0.147-10.253c-6.577-38.337-12.582-57.086-12.582-57.086
							l-22.186-1.181v20.498C261.869,306.944,269.431,326.127,272.968,338.454"/>
					</g>
					<g>
						<g>
							<path style="fill:#6F5E68;" d="M292.937,332.079c-6.577-38.338-12.582-57.086-12.582-57.086l-22.186-1.181v20.498
								c3.7,12.634,11.262,31.817,14.799,44.144c-1.477,18.84-2.887,36.103-3.898,48.299c4.493,0.245,8.978,0.658,13.472,0.868
								c4.175-16.481,7.562-31.894,10.249-45.289C293.468,338.954,293.52,335.475,292.937,332.079z"/>
							<path style="fill:#5B4553;" d="M267.992,390.141c0.122-2.104,0.164-4.213,0.126-6.321c5.495,0.098,10.874,0.281,16.369,0.379
								c-0.755,2.197-1.347,4.486-1.763,6.771C277.836,391.682,272.636,391.826,267.992,390.141z"/>
						</g>
						<g>
							
								<path style="fill:none;stroke:#5B4553;stroke-width:0.5;stroke-linecap:round;stroke-linejoin:round;stroke-miterlimit:10;" d="
								M258.724,280.478c0.154,6.489,0.622,12.97,1.402,19.414c0.783,0.165,1.469-0.485,1.856-1.185
								c0.388-0.7,0.458-1.526,0.51-2.325c0.353-5.384,0.262-10.798-0.274-16.167"/>
							
								<path style="fill:none;stroke:#5B4553;stroke-width:0.5;stroke-linecap:round;stroke-linejoin:round;stroke-miterlimit:10;" d="
								M263.044,302.134c4.069,11.853,12.71,35.506,12.71,35.506s-2.221,29.507-3.156,44.06"/>
						</g>
					</g>
				</g>
			</g>
			<g>
				<g>
					<g>
						<g>
							<path style="fill:#9E6C52;" d="M239.501,199.081l-7.659,2.462c-5.194,7.368-12.327,14.317-19.537,20.311
								c-2.161-18.713,0.135-28.953,0.135-28.953l-8.243-1.878c-0.698,7.15-2.614,19.687-2.633,33.427
								c-0.02,14.382,9.234,12.862,15.61,7.787c8.428-6.709,15.636-13.348,21.465-19.172
								C238.925,208.403,239.346,203.747,239.501,199.081z"/>
						</g>
						<g>
							<path style="fill:#9E6C52;" d="M209.353,182.26c-0.369-0.53-0.841-1.387-1.627-1.333c-0.799,0.054-1.13,0.875-0.992,1.548
								c0.187,0.918,0.628,1.83,0.939,2.71c0.104,0.296,0.209,0.593,0.313,0.889c-1.422-1.322-2.628-2.86-3.549-4.563
								c-0.597-1.103-1.081-2.266-1.429-3.472c-0.266-0.922-0.553-2.07-1.699-2.225c-0.583-0.079-1.036,0.196-1.323,0.614
								c-0.568,0.032-1.119,0.38-1.399,0.953c-0.077,0.158-0.13,0.327-0.172,0.5c-0.213-0.095-0.478-0.071-0.644,0.186
								c-0.495,0.766-0.652,1.624-0.633,2.494c-0.169,0.066-0.312,0.203-0.341,0.427c-0.541,4.252,0.878,8.573,3.704,11.728
								c1.322,1.475,3.161,3.053,5.159,3.566c2.466,0.634,4.486-1.121,6.095-2.768c0.045-0.046,0.07-0.096,0.095-0.145
								c0.278,0.032,0.578-0.117,0.59-0.469C212.575,189.104,211.507,185.357,209.353,182.26z"/>
							<g>
								<path style="fill:#87553E;" d="M200.021,176.646c-0.083,0.042-0.132,0.136-0.113,0.231c0.643,3.287,2.08,6.414,4.154,9.042
									c0.073,0.091,0.208,0.098,0.3,0.035c0.092-0.073,0.108-0.207,0.035-0.299c-2.032-2.575-3.439-5.638-4.07-8.859
									c-0.023-0.116-0.134-0.192-0.25-0.169C200.057,176.631,200.038,176.637,200.021,176.646z"/>
								<path style="fill:#87553E;" d="M198.52,178.384c-0.083,0.042-0.132,0.135-0.113,0.231c0.589,3.07,1.988,5.934,4.047,8.284
									c0.078,0.089,0.207,0.098,0.301,0.019c0.089-0.078,0.097-0.212,0.019-0.301c-2.009-2.292-3.375-5.088-3.949-8.084
									c-0.022-0.115-0.134-0.191-0.249-0.169C198.556,178.369,198.537,178.376,198.52,178.384z"/>
								<path style="fill:#87553E;" d="M197.283,181.213c-0.083,0.05-0.124,0.153-0.092,0.248c0.78,2.407,1.978,4.627,3.561,6.602
									c0.073,0.091,0.202,0.111,0.3,0.033c0.092-0.074,0.106-0.208,0.033-0.3c-1.551-1.934-2.724-4.109-3.489-6.467
									c-0.035-0.112-0.156-0.173-0.268-0.137C197.312,181.198,197.297,181.205,197.283,181.213z"/>
							</g>
						</g>
					</g>
					<path style="fill:#F3DEC1;" d="M241.226,195.443c-6.071,1.475-11.211,6.004-15.374,10.662
						c-4.163,4.658-7.885,9.797-12.835,13.609c-0.735-5.192-1.209-10.412-0.826-15.642c0.053-0.721-1.088-0.959-1.78-1.167
						c-2.751-0.826-5.88-1.109-8.372,0.321c-1.144,7.346-1.672,14.924-1.403,22.353c0.064,1.773,0.172,3.564,0.67,5.267
						c0.498,1.703,1.423,3.332,2.855,4.381c2.132,1.561,5.048,1.606,7.613,0.972c1.37-0.339,2.698-0.851,3.94-1.521
						c2.511-1.354,4.629-3.32,6.718-5.264c5.693-5.298,11.385-10.597,17.078-15.895c-0.133-2.098,0.038-4.315,0.274-6.404
						C240.214,203.327,240.798,199.233,241.226,195.443z"/>
				</g>
				<g>
					<g>
						<g>
							<path style="fill:#9E6C52;" d="M303.856,238.395c4.081-13.12,5.993-25.658,7.46-32.69l-8.562,0.358
								c0,0-0.729,9.434-8.375,26.65c-5.093-7.872-9.828-16.632-12.588-25.215l-20.618-14.531c0,0,7.899,22.285,25.461,48.203
								C291.206,247.916,299.585,252.128,303.856,238.395z"/>
						</g>
						<g>
							<path style="fill:#9E6C52;" d="M302.775,205.978c-0.093,0.34,0.148,0.571,0.423,0.624c0.009,0.055,0.018,0.11,0.047,0.167
								c1.044,2.052,2.448,4.33,4.991,4.46c2.06,0.106,4.286-0.851,5.988-1.865c3.639-2.168,6.283-5.868,7.035-10.089
								c0.039-0.222-0.056-0.395-0.198-0.509c0.278-0.825,0.384-1.69,0.14-2.57c-0.082-0.295-0.328-0.397-0.559-0.37
								c0.012-0.177,0.012-0.354-0.015-0.528c-0.097-0.63-0.519-1.127-1.051-1.327c-0.149-0.485-0.499-0.882-1.079-0.981
								c-1.139-0.193-1.757,0.817-2.285,1.617c-0.692,1.048-1.501,2.013-2.399,2.888c-1.388,1.35-2.997,2.459-4.749,3.296
								c0.188-0.252,0.376-0.503,0.564-0.755c0.56-0.748,1.253-1.486,1.705-2.307c0.332-0.602,0.262-1.483-0.485-1.773
								c-0.734-0.285-1.441,0.391-1.951,0.787C305.916,199.057,303.779,202.315,302.775,205.978z"/>
							<g>
								<path style="fill:#87553E;" d="M319.478,194.17c0.067,0.065,0.085,0.169,0.039,0.254c-1.594,2.945-3.899,5.501-6.662,7.391
									c-0.097,0.065-0.228,0.031-0.296-0.056c-0.066-0.097-0.041-0.23,0.056-0.296c2.707-1.852,4.965-4.356,6.527-7.241
									c0.056-0.104,0.185-0.143,0.289-0.086C319.449,194.145,319.464,194.157,319.478,194.17z"/>
								<path style="fill:#87553E;" d="M320.392,196.277c0.066,0.064,0.085,0.168,0.039,0.254c-1.478,2.755-3.668,5.071-6.334,6.7
									c-0.1,0.061-0.227,0.031-0.293-0.071c-0.061-0.1-0.029-0.232,0.071-0.293c2.602-1.589,4.739-3.849,6.181-6.537
									c0.055-0.103,0.185-0.142,0.288-0.087C320.362,196.251,320.378,196.264,320.392,196.277z"/>
								<path style="fill:#87553E;" d="M320.729,199.346c0.064,0.072,0.073,0.183,0.014,0.265c-1.462,2.064-3.268,3.827-5.368,5.239
									c-0.097,0.065-0.226,0.046-0.296-0.058c-0.065-0.098-0.039-0.23,0.058-0.296c2.057-1.383,3.826-3.109,5.259-5.131
									c0.067-0.096,0.201-0.119,0.297-0.05C320.706,199.323,320.718,199.334,320.729,199.346z"/>
							</g>
						</g>
					</g>
					<path style="fill:#F3DEC1;" d="M272.408,195.443c2.213,1.028,4.712,1.948,6.481,3.874c2.085,2.27,2.943,5.367,3.899,8.297
						c2.734,8.378,6.778,16.296,11.61,23.665c2.15-4.251,3.692-8.565,5.154-13.099c0.559-0.433,1.358-0.547,2.064-0.574
						c2.922-0.113,5.843,1.536,7.256,4.096c-1.011,6.732-2.979,13.424-5.593,19.71c-0.674,1.621-1.422,3.255-2.634,4.525
						c-2.497,2.616-6.904,3.127-9.934,1.153c-1.745-1.137-2.957-2.91-4.108-4.646c-4.761-7.179-9.269-14.522-13.776-21.864
						C268.52,213.567,272.368,203.674,272.408,195.443z"/>
				</g>
				<g>
					<path style="fill:#F3DEC1;" d="M275.279,196.38l-10.812-3.526c0.152-0.314,0.322-0.619,0.515-0.91
						c0.398-0.6,0.887-1.156,1.12-1.837c0.233-0.681,0.124-1.555-0.482-1.944c-0.41-0.264-0.94-0.243-1.419-0.149
						c-1.272,0.25-2.413,0.943-3.656,1.31c-2.817,0.831-5.832-0.074-8.578-1.115c-0.772-0.292-1.563-0.6-2.388-0.594
						c-0.825,0.006-1.706,0.405-2.025,1.166c-0.341,0.812,0.036,1.73,0.409,2.527c0.26,0.556,0.519,1.113,0.779,1.669l-10.476,3.439
						c0,0-3.025,37.721-4.985,78.502c0,0,14.084,7.051,47.075,0.076C276.773,261.166,275.279,196.38,275.279,196.38z"/>
					<g>
						<path style="fill:none;stroke:#6F5E68;stroke-linecap:round;stroke-linejoin:round;stroke-miterlimit:10;" d="
							M252.683,197.219c0.125,3.586,0.251,7.172,0.376,10.758c0.196,5.604,0.386,11.275-0.777,16.761"/>
						<path style="fill:none;stroke:#6F5E68;stroke-linecap:round;stroke-linejoin:round;stroke-miterlimit:10;" d="
							M262.257,196.956c0.06,8.783,0.911,19.107,2.289,27.782"/>
					</g>
					
						<path style="fill:none;stroke:#EAC598;stroke-width:0.5;stroke-linecap:round;stroke-linejoin:round;stroke-miterlimit:10;" d="
						M274.141,271.12c0.105-2.778,0.009-5.667-0.159-8.442c-3.617-1.046-6.389-4.247-7.749-7.758
						c-4.782-0.966-9.773-0.875-14.517,0.264c-0.499,1.694-1.243,3.098-2.25,4.548c-1.007,1.45-2.565,2.619-4.327,2.737
						c-0.327,3.073-0.415,6.283-0.266,9.37C254.477,272.883,264.775,273.484,274.141,271.12z"/>
				</g>
			</g>
			<g>
				<path style="fill:#36303A;" d="M273.539,164.529c-4.096,6.513-12.468,8.551-16.472,15.09c-0.873,1.426-1.971,3.031-3.854,2.996
					c-1.733-0.033-2.837-1.584-3.727-2.867c-2.523-3.636-4.501-7.646-5.924-11.834c-1.15-0.753-1.776-2.191-1.872-3.563
					c-0.096-1.372,0.482-2.775,1.516-3.681c-0.529-1.372-1.021-2.768-1.069-4.238c-0.048-1.47,0.484-3.043,1.701-3.869
					c-0.626-1.51-0.064-3.386,1.198-4.425c1.262-1.039,3.211-1.14,4.573-0.236c1.886-2.064,4.479-3.769,7.2-4.41
					c1.006-0.237,2.09-0.357,3.054,0.017c0.964,0.374,1.749,1.369,1.584,2.389c1.634-0.533,3.381-0.992,5.096-1.107
					c1.715-0.116,3.525,0.233,4.865,1.309c1.34,1.076,2.088,2.974,1.506,4.592c1.135,0.407,2.086,1.407,2.527,2.53
					c0.441,1.123,0.513,2.358,0.45,3.563C275.75,159.495,274.983,162.233,273.539,164.529z"/>
				<path style="fill:#9E6C52;" d="M250.31,156.584c4.648-8.522,21.002-5.613,22.273,1.162c2.615,13.937,0.63,19.658-3.244,22.95
					c-4.483,3.81-7.408,3.325-7.408,11.33c-1.695,4.261-8.199,4.842-10.297,0c0.129-10.604-3.51-18.64-3.51-18.64
					S248.394,160.098,250.31,156.584z"/>
				<path style="fill:#36303A;" d="M252.053,158.472c1.039,1.498,2.467,2.314,3.854,2.747c1.468,0.459,2.508-1.437,1.343-2.441l0,0
					c0,0,8.07,4.777,16.402,3.122c0,0,1.223-3.058-2.522-8.158c-2.395-3.262-9.361-4.067-15.3-2.97
					c-5.939,1.098-8.522,3.68-8.715,7.941c-0.194,4.261-0.627,9.581-0.627,9.581l2.305,1.758
					C252.408,167.642,252.053,158.472,252.053,158.472z"/>
				<g>
					<g>
						<path style="fill:#1B1B28;" d="M260.299,169.722c0,0.579,0.469,1.049,1.048,1.049c0.579,0,1.049-0.469,1.049-1.049
							c0-0.579-0.47-1.048-1.049-1.048C260.769,168.673,260.299,169.143,260.299,169.722z"/>
						<path style="fill:#FFFFFF;" d="M261.348,169.435c0,0.212,0.172,0.384,0.384,0.384c0.212,0,0.384-0.172,0.384-0.384
							c0-0.212-0.172-0.384-0.384-0.384C261.52,169.051,261.348,169.223,261.348,169.435z"/>
					</g>
					<g>
						<path style="fill:#1B1B28;" d="M268.409,169.722c0,0.579,0.469,1.049,1.048,1.049c0.579,0,1.048-0.469,1.048-1.049
							c0-0.579-0.469-1.048-1.048-1.048C268.878,168.673,268.409,169.143,268.409,169.722z"/>
						<path style="fill:#FFFFFF;" d="M269.457,169.435c0,0.212,0.172,0.384,0.384,0.384c0.212,0,0.384-0.172,0.384-0.384
							c0-0.212-0.172-0.384-0.384-0.384C269.629,169.051,269.457,169.223,269.457,169.435z"/>
					</g>
					<path style="fill:#36303A;" d="M267.707,165.617c1.317-0.917,3.028-0.864,4.269,0.209c0.232,0.201,0.273,0.605,0.096,0.867
						c-0.181,0.267-0.523,0.312-0.756,0.11c-0.509-0.44-1.158-0.639-1.792-0.593c-0.32,0.024-0.637,0.109-0.931,0.256
						c-0.261,0.13-0.514,0.355-0.807,0.187c-0.07-0.04-0.13-0.099-0.177-0.17C267.446,166.242,267.457,165.791,267.707,165.617z"/>
					<path style="fill:#36303A;" d="M263.62,165.617c-1.51-0.917-3.472-0.864-4.895,0.209c-0.267,0.201-0.313,0.605-0.111,0.867
						c0.207,0.267,0.599,0.312,0.867,0.11c0.584-0.44,1.328-0.631,2.053-0.583c0.367,0.025,0.73,0.109,1.069,0.251
						c0.299,0.126,0.593,0.348,0.926,0.181c0.08-0.04,0.149-0.099,0.203-0.17C263.919,166.242,263.907,165.791,263.62,165.617z"/>
					<path style="fill:#87553E;" d="M267.106,172.565c0.059,0,0.114-0.039,0.132-0.099c0.259-0.894-0.044-1.198-0.345-1.295
						c-0.305-0.097-0.67-0.019-1.086,0.238c-0.064,0.04-0.084,0.124-0.044,0.189c0.041,0.064,0.126,0.083,0.189,0.044
						c0.343-0.212,0.632-0.283,0.857-0.21c0.27,0.087,0.326,0.409,0.166,0.958c-0.021,0.072,0.021,0.148,0.094,0.17
						C267.081,172.564,267.094,172.565,267.106,172.565z"/>
					<g>
						<path style="fill:#8E4136;" d="M262.525,176.082c0,1.564,1,2.833,2.234,2.833c1.234,0,2.234-1.268,2.234-2.833
							c0-1.565-1-2.833-2.234-2.833C263.525,173.249,262.525,174.518,262.525,176.082z"/>
						<path style="fill:#C16B5B;" d="M262.61,176.847c0.327-0.093,0.692-0.147,1.078-0.147c1.39,0,2.517,0.675,2.517,1.507
							c0,0.012-0.003,0.023-0.003,0.035c-0.39,0.419-0.893,0.673-1.444,0.673C263.734,178.915,262.873,178.04,262.61,176.847z"/>
						<path style="fill:#FFFFFF;" d="M264.759,173.249c0.522,0,1.001,0.229,1.382,0.609c-0.247,0.336-0.779,0.569-1.396,0.569
							c-0.608,0-1.132-0.226-1.384-0.552C263.743,173.484,264.229,173.249,264.759,173.249z"/>
					</g>
				</g>
				<g>
					<path style="fill:#9E6C52;" d="M244.537,173.693c1.402,1.672,3.614,2.125,4.941,1.012c1.327-1.113,1.266-3.37-0.136-5.041
						c-1.402-1.672-3.614-2.125-4.941-1.012C243.075,169.764,243.136,172.021,244.537,173.693z"/>
					<path style="fill:#87553E;" d="M245.317,169.469c0.596-0.315,1.391-0.301,2.125,0.041c0.366,0.17,0.631,0.377,0.813,0.632
						c0.24,0.338,0.306,0.763,0.173,1.108c-0.118,0.31-0.365,0.511-0.584,0.688c-0.158,0.128-0.307,0.25-0.392,0.395
						c-0.129,0.223-0.097,0.535,0.077,0.725c0.173,0.19,0.48,0.252,0.714,0.144c0.138-0.064,0.3-0.003,0.364,0.134
						c0.063,0.137,0.004,0.3-0.134,0.364c-0.15,0.07-0.314,0.103-0.477,0.103c-0.325,0-0.651-0.132-0.873-0.376
						c-0.333-0.367-0.393-0.942-0.144-1.369c0.134-0.231,0.339-0.397,0.519-0.544c0.181-0.147,0.351-0.286,0.418-0.46
						c0.067-0.174,0.024-0.407-0.109-0.595c-0.054-0.076-0.127-0.144-0.208-0.21c-0.272-0.002-0.613,0.081-0.785,0.269
						c-0.194,0.212-0.285,0.52-0.239,0.803c0.025,0.149-0.077,0.29-0.226,0.315c-0.015,0.003-0.03,0.004-0.045,0.004
						c-0.132,0-0.248-0.095-0.27-0.23c-0.075-0.451,0.065-0.922,0.374-1.261c0.115-0.126,0.259-0.211,0.41-0.28
						c-0.453-0.122-0.9-0.098-1.247,0.085c-0.429,0.226-0.752,0.811-0.532,1.287c0.063,0.138,0.003,0.3-0.134,0.364
						c-0.137,0.063-0.3,0.004-0.364-0.134C244.223,170.777,244.577,169.861,245.317,169.469z"/>
				</g>
			</g>
		</g>
		<path style="fill:#DB9B7F;" d="M312.521,107.532c-13.882,0-25.136,11.254-25.136,25.136c0,9.376,5.137,17.546,12.746,21.867
			c-2.24,4.686-5.923,8.681-10.456,11.224c6.264-0.776,11.871-4.04,15.571-9.029c2.303,0.695,4.744,1.073,7.274,1.073
			c13.882,0,25.136-11.254,25.136-25.136C337.657,118.786,326.403,107.532,312.521,107.532z"/>
	</g>
	<g>
		<g>
			<g>
				<path style="fill:#C94339;" d="M201.617,382.791c-2.244,2.538-5.138,4.394-7.781,6.512
					c-8.001,6.396-13.873,15.236-16.421,25.145h-2.821c-0.283-13.233-0.273-26.98,6.837-38.148c1.793-2.8,3.985-5.411,6.774-7.214
					c2.8-1.803,6.26-2.726,9.511-2.024c1.049,0.22,2.055,0.629,2.968,1.196c0.168,0.094,0.325,0.199,0.472,0.294
					c1.709,1.195,3.02,2.926,3.481,4.939C205.392,376.793,203.861,380.254,201.617,382.791z"/>
				<path style="fill:#E1695B;" d="M201.156,368.551c-7.005,4.981-12.887,11.472-17.155,18.938
					c-4.698,8.221-7.361,17.511-7.76,26.959h-0.524c0.398-9.542,3.093-18.927,7.833-27.211c4.268-7.476,10.14-13.978,17.134-18.979
					C200.852,368.352,201.009,368.457,201.156,368.551z"/>
			</g>
			<g>
				<path style="fill:#E1695B;" d="M176.304,414.574h-4.173c-3.009-11.839-10.192-23.153-19.672-30.85
					c-4.226-3.418-8.976-6.271-12.552-10.35c-3.586-4.09-5.862-9.92-3.922-14.995c0.986-2.611,2.989-4.593,5.453-5.862
					c0.168-0.094,0.336-0.178,0.514-0.262c3.051-1.426,6.711-1.793,9.993-0.965c6.176,1.552,11.042,6.386,14.534,11.713
					C176.273,377.905,176.315,396.748,176.304,414.574z"/>
				<path style="fill:#C94339;" d="M174.375,414.574h-0.535c-2.296-23.74-14.208-46.662-32.402-62.056
					c0.168-0.094,0.336-0.178,0.514-0.262C160.166,367.765,172.078,390.761,174.375,414.574z"/>
			</g>
		</g>
		<g>
			<path style="fill:#6B8383;" d="M362.431,376.217c-1.216,1.824-3.471,2.642-5.62,3.072c-1.877,0.378-3.838,0.556-5.61,1.248
				c-0.252,0.105-0.503,0.21-0.744,0.336c-0.084,0.042-0.157,0.084-0.241,0.136c-3.072,1.667-4.855,5.432-4.194,8.861
				c0.325,1.667,1.154,3.23,1.258,4.918c0.01,0.063,0.021,0.126,0.021,0.189c0,0.115,0.01,0.22-0.01,0.336
				c-0.052,3.439-3.261,6.145-6.543,7.309c-3.398,1.185-7.109,1.321-10.454,2.653c-3.345,1.332-7.267,4.761-6.69,8.315h-4.949
				c1.888-2.768,2.705-5.967,2.496-9.301c-0.283-4.729-4.834-8.515-4.729-13.244c0.052-2.38,1.342-4.593,3.125-6.166
				c0.147-0.136,0.294-0.262,0.451-0.388c0.021-0.021,0.042-0.031,0.063-0.052c2.045-1.594,4.551-2.485,7.078-3.104
				c1.216-0.294,2.475-0.545,3.66-0.986c0.157-0.063,0.325-0.126,0.482-0.189c0.189-0.084,0.388-0.178,0.577-0.273
				c1.468-0.755,2.758-2.076,2.989-3.712c0.409-2.884-2.454-5.159-3.188-7.98c-0.713-2.768,0.839-5.778,3.188-7.403
				c1.741-1.206,3.848-1.762,5.977-1.94c0.178-0.01,0.346-0.031,0.524-0.042c0.556-0.021,1.122-0.031,1.688-0.01
				c3.387,0.105,6.753,0.944,9.825,2.391c0.157,0.084,0.325,0.157,0.482,0.241c2.338,1.164,4.498,2.695,6.365,4.53
				c0.388,0.388,0.765,0.776,1.122,1.195c0.136,0.157,0.262,0.315,0.398,0.482c0.723,0.923,1.321,1.929,1.709,3.03
				C363.553,372.494,363.501,374.612,362.431,376.217z"/>
			<path style="fill:#4A6D6C;" d="M348.453,367.796c-2.779,3.743-5.453,7.56-8.032,11.451c3.565,0.692,7.162,1.132,10.779,1.29
				c-0.252,0.105-0.503,0.21-0.744,0.336c-0.084,0.042-0.157,0.084-0.241,0.136c-3.387-0.189-6.763-0.629-10.108-1.29
				c-3.156,4.782-6.155,9.668-8.997,14.649c5.358,0.482,10.779,0.629,16.169,0.419c0.01,0.063,0.021,0.126,0.021,0.189
				c0,0.115,0.01,0.22-0.01,0.336c-1.615,0.063-3.24,0.094-4.865,0.094c-3.88,0-7.749-0.178-11.608-0.535
				c-3.46,6.103-6.69,12.342-9.647,18.717h-0.587c1.982-4.268,4.079-8.462,6.281-12.615c-2.443-2.632-4.394-6.113-5.799-10.36
				c-0.619-1.877-1.101-3.796-1.521-5.736c0.147-0.136,0.294-0.262,0.451-0.388c0.419,2.013,0.923,4.016,1.562,5.967
				c1.363,4.1,3.23,7.466,5.579,10.024c2.349-4.404,4.824-8.724,7.414-12.982c-1.457-2.265-2.716-4.666-3.754-7.151
				c0.157-0.063,0.325-0.126,0.482-0.189c1.007,2.37,2.192,4.656,3.576,6.837c2.936-4.782,6.008-9.458,9.238-14.041
				c-2.15-4.404-3.261-9.228-3.272-14.104c0.178-0.01,0.346-0.031,0.524-0.042c0,4.708,1.059,9.364,3.093,13.642
				c2.705-3.827,5.516-7.581,8.42-11.262c0.157,0.084,0.325,0.157,0.482,0.241c-1.531,1.929-3.031,3.88-4.509,5.862
				c3.995,0.304,8.011,0.262,11.996-0.136c0.136,0.157,0.262,0.315,0.398,0.482c-2.391,0.252-4.803,0.378-7.204,0.378
				C352.166,368.017,350.309,367.943,348.453,367.796z"/>
		</g>
	</g>
</g>
</svg>
